<svg width="89" height="89" viewBox="0 0 89 89" fill="none" xmlns="http://www.w3.org/2000/svg">
<path id="Vector" fill-rule="evenodd" clip-rule="evenodd" d="M44.5 1.06787e-06C19.9269 1.06787e-06 0 19.9269 0 44.5C0 69.0731 19.9269 89 44.5 89C69.0731 89 89 69.0731 89 44.5C88.996 41.5185 88.7056 38.5442 88.1328 35.6183C87.9787 34.8417 87.5602 34.1426 86.9485 33.64C86.3369 33.1373 85.5699 32.8622 84.7782 32.8615H44.5C43.5921 32.8615 42.7215 33.2222 42.0795 33.8641C41.4376 34.5061 41.0769 35.3768 41.0769 36.2846V52.7154C41.0769 54.6049 42.6105 56.1385 44.5 56.1385H62.2224C60.922 58.1141 59.3026 59.86 57.4301 61.305H57.421L57.4301 61.3142C53.7294 64.1792 49.1801 65.7304 44.5 65.7231C38.8713 65.7231 33.4731 63.4871 29.493 59.507C25.5129 55.5269 23.2769 50.1287 23.2769 44.5C23.2769 38.8713 25.5129 33.4731 29.493 29.493C33.4731 25.5129 38.8713 23.2769 44.5 23.2769C49.9039 23.2769 54.8149 25.3125 58.5757 28.6534C59.2282 29.2341 60.078 29.5434 60.9511 29.518C61.8242 29.4925 62.6546 29.1342 63.2722 28.5165L74.8878 16.8963C75.2128 16.5713 75.4691 16.1841 75.6412 15.7579C75.8134 15.3317 75.8979 14.8752 75.8899 14.4156C75.8818 13.956 75.7812 13.5027 75.5941 13.0828C75.4071 12.6629 75.1374 12.285 74.8011 11.9716C66.5876 4.27771 55.7542 -0.00246827 44.5 1.06787e-06ZM59.1143 68.4615C55.89 70.4303 52.3014 71.7277 48.5637 72.2759C44.8259 72.8242 41.0159 72.6121 37.3621 71.6523C33.7083 70.6925 30.2859 69.0048 27.3001 66.6903C24.3143 64.3759 21.8267 61.4823 19.9862 58.1832L12.3322 64.08C15.6912 69.6009 20.4152 74.1639 26.0492 77.3295C31.6833 80.495 38.0375 82.1565 44.5 82.1538C52.8112 82.1538 60.4972 79.461 66.7272 74.8969L59.1143 68.4615ZM71.9074 70.3146C78.4991 63.3371 82.166 54.0987 82.1538 44.5C82.1538 42.9117 82.0489 41.2869 81.8572 39.7077H47.9231V49.2923H67.713C68.2606 49.2924 68.8002 49.4238 69.2865 49.6756C69.7727 49.9274 70.1915 50.2921 70.5076 50.7393C70.8237 51.1864 71.028 51.7028 71.1032 52.2452C71.1784 52.7876 71.1224 53.3401 70.9398 53.8564C69.5804 57.6928 67.4051 61.1886 64.5638 64.1028L71.912 70.3146H71.9074ZM12.6426 24.4225C16.0333 19.0381 20.7341 14.6015 26.3055 11.5277C31.8769 8.4538 38.1369 6.8431 44.5 6.84616C53.1353 6.84616 61.0677 9.77631 67.4255 14.6782L60.5793 21.5243C55.8745 18.2061 50.2573 16.4267 44.5 16.4308C39.642 16.4288 34.8667 17.6884 30.6416 20.0862C26.4165 22.4839 22.8865 25.9377 20.397 30.1094L12.6426 24.4225ZM9.49333 30.6023C7.73831 35.0253 6.83997 39.7416 6.84615 44.5C6.84156 49.0431 7.66116 53.5493 9.26513 57.7998L17.3299 51.5835C16.7304 49.2701 16.4282 46.8898 16.4308 44.5C16.4308 41.7342 16.8324 39.0596 17.5764 36.5311L9.49333 30.6023Z" fill="#C9D3DC" style="fill:#C9D3DC;fill:color(display-p3 0.7870 0.8263 0.8625);fill-opacity:1;"/>
</svg>
