<svg width="26" height="26" viewBox="0 0 26 26" fill="none" xmlns="http://www.w3.org/2000/svg">
<g id="Group 9">
<path id="Vector" d="M25.7471 10.4539H24.7V10.4H13V15.6H20.347C19.2751 18.627 16.3949 20.8 13 20.8C8.69245 20.8 5.2 17.3075 5.2 13C5.2 8.69245 8.69245 5.2 13 5.2C14.9883 5.2 16.7973 5.9501 18.1747 7.17535L21.8517 3.4983C19.5299 1.33445 16.4242 0 13 0C5.82075 0 0 5.82075 0 13C0 20.1792 5.82075 26 13 26C20.1792 26 26 20.1792 26 13C26 12.1283 25.9103 11.2775 25.7471 10.4539Z" fill="#FFC107" style="fill:#FFC107;fill:color(display-p3 1.0000 0.7569 0.0275);fill-opacity:1;"/>
<path id="Vector_2" d="M1.49878 6.94915L5.76993 10.0815C6.92563 7.2202 9.72453 5.2 12.9999 5.2C14.9882 5.2 16.7972 5.9501 18.1745 7.17535L21.8516 3.4983C19.5298 1.33445 16.4241 0 12.9999 0C8.00658 0 3.67628 2.81905 1.49878 6.94915Z" fill="#FF3D00" style="fill:#FF3D00;fill:color(display-p3 1.0000 0.2392 0.0000);fill-opacity:1;"/>
<path id="Vector_3" d="M13 26C16.3579 26 19.409 24.715 21.7159 22.6252L17.6924 19.2205C16.3433 20.2465 14.6949 20.8013 13 20.8C9.61871 20.8 6.74766 18.644 5.66606 15.6351L1.42676 18.9014C3.57826 23.1114 7.94756 26 13 26Z" fill="#4CAF50" style="fill:#4CAF50;fill:color(display-p3 0.2980 0.6863 0.3137);fill-opacity:1;"/>
<path id="Vector_4" d="M25.7471 10.4539H24.7V10.4H13V15.6H20.347C19.8342 17.0407 18.9107 18.2996 17.6904 19.2211L17.6923 19.2198L21.7158 22.6245C21.4311 22.8832 26 19.5 26 13C26 12.1283 25.9103 11.2775 25.7471 10.4539Z" fill="#1976D2" style="fill:#1976D2;fill:color(display-p3 0.0980 0.4627 0.8235);fill-opacity:1;"/>
</g>
</svg>
