<svg width="240" height="92" viewBox="0 0 240 92" fill="none" xmlns="http://www.w3.org/2000/svg">
<g id="Logo">
<path id="Vector" d="M9.99911 34.5751C10.4569 34.6942 10.9427 34.7588 11.4155 34.7606C15.079 34.7754 18.7431 34.7976 22.4062 34.7511C23.4522 34.738 24.0947 35.1175 24.5991 36.016C26.4519 39.3181 28.3473 42.5971 30.2428 45.8752C31.3136 47.7277 32.3881 49.5794 33.5147 51.3985C34.3292 52.714 35.7977 53.2171 37.1714 52.7559C38.1921 52.4134 38.8011 51.6395 39.3132 50.7518C42.1966 45.7507 45.0931 40.7568 47.9652 35.7493C48.3646 35.053 48.8867 34.761 49.6899 34.7664C53.6007 34.7926 57.512 34.7854 61.4232 34.7863C62.6005 34.7863 63.1588 34.2565 63.1855 33.0759C63.2073 32.1215 63.2068 31.1652 63.1819 30.2107C63.1543 29.1493 62.5833 28.5762 61.5242 28.5744C56.4538 28.5653 51.3829 28.5667 46.3125 28.5784C45.5183 28.5802 44.8224 28.8776 44.3465 29.536C43.7071 30.4215 43.0352 31.2933 42.4923 32.237C40.8264 35.132 39.2185 38.0599 37.5808 40.9707C37.1529 41.7311 36.6987 42.4771 36.2133 43.3034C35.742 42.5632 35.2865 41.9053 34.8889 41.2135C32.8568 37.6768 30.8155 34.1446 28.8291 30.5821C28.0485 29.1827 26.9708 28.5211 25.3467 28.5527C22.4261 28.6091 19.5033 28.578 16.5814 28.5613C14.854 28.5513 13.1266 28.6177 11.4064 28.3054C8.80962 27.8338 6.43968 25.118 6.44194 22.5366C6.44466 19.379 6.47771 16.2205 6.41975 13.0633C6.35274 9.40249 8.97217 6.98496 11.4069 6.52872C12.2214 6.37618 13.0627 6.30217 13.8923 6.29901C16.5044 6.28863 19.1166 6.3455 21.7288 6.34685C34.7146 6.35317 47.7003 6.35001 60.6861 6.34685C61.0252 6.34685 61.3662 6.32338 61.7035 6.28683C62.6349 6.18574 63.138 5.68843 63.1805 4.75878C63.2222 3.83591 63.1892 2.91033 63.2186 1.98655C63.2516 0.946793 62.8482 0.243693 61.7859 0H11.6894C10.9237 0.153888 10.139 0.245047 9.39553 0.471591C4.56555 1.94368 1.51008 5.11124 0.329183 10.0257C0.172063 10.6796 0.107313 11.3552 0 12.0213V23.024C0.028979 23.1247 0.062486 23.2244 0.0864842 23.3259C0.35454 24.4754 0.488115 25.6767 0.911933 26.7661C2.54155 30.954 5.69211 33.4545 9.99911 34.5751Z" fill="#2C3366" style="fill:#2C3366;fill:color(display-p3 0.1725 0.2000 0.4000);fill-opacity:1;"/>
<path id="Vector_2" d="M53.3699 43.4785C53.1689 43.5877 52.99 43.7912 52.8727 43.9925C48.4073 51.6729 43.9499 59.3578 39.4917 67.0422C38.2248 69.2255 36.9565 71.4084 35.656 73.6481C35.5374 73.4518 35.441 73.3006 35.3522 73.1449C29.8761 63.5601 24.4022 53.9744 18.9171 44.3946C18.7812 44.1576 18.5548 43.9324 18.3162 43.7993C13.0909 40.884 7.85795 37.9827 2.62588 35.0796C2.48551 35.0015 2.33835 34.9357 2.1106 34.8224C2.22198 35.0295 2.28085 35.1491 2.34831 35.2637C11.1697 50.2973 19.9929 65.3296 28.8134 80.3637C31.0878 84.2402 33.3545 88.1212 35.6248 92H35.7176C35.772 91.8768 35.8145 91.7464 35.8824 91.6313C46.9791 72.8444 58.0781 54.0583 69.1757 35.2719C69.2468 35.1514 69.3034 35.0228 69.4057 34.8224C69.2368 34.9018 69.1535 34.9366 69.0743 34.979C63.8377 37.809 58.6006 40.6376 53.3704 43.4785H53.3699Z" fill="#2C3366" style="fill:#2C3366;fill:color(display-p3 0.1725 0.2000 0.4000);fill-opacity:1;"/>
<path id="Vector_3" d="M239.921 58.5424C239.791 57.6141 239.713 56.6754 239.528 55.7579C238.884 52.5484 237.006 50.4256 233.846 49.4526C232.15 48.9309 230.408 48.675 228.647 48.6489C224.798 48.5925 220.948 48.5861 217.098 48.5907C214.809 48.5934 212.528 48.7373 210.311 49.379C207.587 50.167 205.558 51.7501 204.73 54.5336C204.361 55.7764 204.117 57.0847 204.034 58.3776C203.9 60.4504 203.895 62.5358 203.935 64.6135C203.962 66.0093 204.083 67.4141 204.301 68.7933C204.869 72.3972 206.953 74.6852 210.504 75.6334C212.458 76.155 214.455 76.3432 216.466 76.359C220.114 76.3879 223.765 76.4249 227.411 76.3423C229.178 76.3022 230.964 76.1262 232.698 75.7886C236.769 74.9952 238.883 72.7763 239.642 68.7044C239.802 67.8474 239.883 66.9759 240 66.1108V58.8989C239.973 58.7802 239.937 58.6624 239.92 58.5424H239.921ZM232.173 66.2868C232.067 68.332 230.783 69.4404 228.578 69.7067C227.69 69.8136 226.793 69.8854 225.899 69.893C223.147 69.916 220.395 69.9206 217.644 69.8876C216.753 69.8768 215.852 69.7874 214.975 69.6299C212.954 69.2671 211.961 68.3352 211.751 66.3216C211.477 63.7028 211.432 61.0605 211.802 58.4422C212.056 56.6388 213.113 55.6144 214.958 55.4055C216.458 55.2358 217.976 55.2218 219.487 55.1654C220.306 55.1347 221.126 55.16 221.945 55.16C221.945 55.1735 221.945 55.1871 221.945 55.2006C223.692 55.2006 225.439 55.1803 227.185 55.211C227.846 55.2223 228.514 55.3012 229.161 55.4353C231.055 55.8279 232.087 56.8523 232.176 58.7694C232.292 61.2713 232.303 63.7876 232.173 66.2877V66.2868Z" fill="#2C3366" style="fill:#2C3366;fill:color(display-p3 0.1725 0.2000 0.4000);fill-opacity:1;"/>
<path id="Vector_4" d="M116.499 55.9989C115.903 52.5046 113.844 50.2739 110.391 49.3375C108.818 48.9106 107.214 48.6705 105.593 48.6484C101.729 48.596 97.8647 48.5893 94.0005 48.5906C91.9598 48.5915 89.9253 48.717 87.9303 49.1949C85.2688 49.8321 83.0895 51.111 81.9407 53.7307C81.3788 55.0124 81.0745 56.3712 81.0057 57.7548C80.8979 59.9223 80.8268 62.0962 80.8676 64.2646C80.8979 65.8734 81.0247 67.4967 81.2941 69.082C81.8311 72.2455 83.655 74.395 86.7417 75.4221C88.3043 75.942 89.9204 76.2277 91.5581 76.2665C93.9983 76.3242 96.4406 76.2814 98.8817 76.2814C98.8817 76.3111 98.8817 76.3409 98.8817 76.3707C100.597 76.3707 102.313 76.3847 104.029 76.3671C106.04 76.3463 108.042 76.2078 110.002 75.724C112.705 75.057 114.908 73.7027 115.917 70.9928C116.368 69.7833 116.667 68.4728 116.764 67.188C116.932 64.9961 116.947 62.7866 116.908 60.5871C116.881 59.055 116.756 57.5093 116.499 55.9993V55.9989ZM109.053 66.6546C108.831 68.3825 107.678 69.3307 106.006 69.6064C104.974 69.7766 103.922 69.8533 102.876 69.8898C101.533 69.9368 100.188 69.9011 98.8436 69.9011C98.8436 69.8713 98.8436 69.8415 98.8436 69.8118C96.9288 69.8118 95.0139 69.8361 93.0999 69.7973C92.4909 69.7851 91.8733 69.6506 91.281 69.4922C89.7601 69.0852 88.9052 68.0495 88.7032 66.5151C88.5833 65.6026 88.514 64.6757 88.5226 63.756C88.5384 62.0343 88.5479 60.3064 88.7078 58.5947C88.883 56.7232 89.9829 55.6568 91.8633 55.4C92.9306 55.2543 94.015 55.1771 95.0922 55.1703C98.1201 55.1518 101.149 55.1685 104.177 55.2127C104.911 55.2236 105.656 55.3391 106.374 55.4993C107.82 55.8211 108.773 56.7092 109.008 58.1908C109.453 61.005 109.416 63.8372 109.053 66.6537L109.053 66.6546Z" fill="#2C3366" style="fill:#2C3366;fill:color(display-p3 0.1725 0.2000 0.4000);fill-opacity:1;"/>
<path id="Vector_5" d="M204.438 48.6389C204.264 48.6118 204.177 48.5866 204.09 48.5861C200.998 48.5838 197.906 48.5802 194.814 48.5942C194.62 48.5951 194.393 48.6958 194.237 48.8199C189.64 52.4852 185.05 56.1595 180.458 59.8316C179.815 60.3461 179.168 60.8565 178.437 61.4378V39.6484H170.754V76.3482H178.444V63.2907C178.641 63.4347 178.767 63.5177 178.883 63.612C184.039 67.7896 189.193 71.9694 194.355 76.1392C194.517 76.2701 194.764 76.3617 194.972 76.3626C198.157 76.3766 201.341 76.3725 204.526 76.3707C204.633 76.3707 204.74 76.3482 204.921 76.3279C198.977 71.5145 193.104 66.7575 187.186 61.9653C192.935 57.5247 198.655 53.1057 204.438 48.6385V48.6389Z" fill="#2C3366" style="fill:#2C3366;fill:color(display-p3 0.1725 0.2000 0.4000);fill-opacity:1;"/>
<path id="Vector_6" d="M155.644 55.8878C155.084 52.6048 153.169 50.4386 149.944 49.4543C148.248 48.9367 146.507 48.675 144.746 48.6488C140.882 48.5919 137.017 48.5856 133.153 48.591C130.88 48.5942 128.617 48.7422 126.413 49.374C123.478 50.2157 121.417 51.982 120.673 54.9997C120.343 56.3351 120.092 57.7255 120.074 59.0947C119.999 64.7172 120.027 70.3411 120.019 75.9645C120.019 76.0841 120.035 76.2037 120.045 76.3472H127.663V75.7565C127.663 70.8262 127.655 65.896 127.672 60.9657C127.674 60.1678 127.743 59.365 127.851 58.5743C128.069 56.989 128.931 55.9072 130.518 55.5083C131.172 55.344 131.855 55.2208 132.527 55.2123C135.819 55.1708 139.111 55.1577 142.404 55.1721C143.312 55.1762 144.227 55.2556 145.123 55.3955C146.917 55.6748 147.938 56.6911 148.229 58.4588C148.348 59.1849 148.418 59.9282 148.421 60.6638C148.438 65.7172 148.432 70.7707 148.433 75.8242C148.433 76.0011 148.433 76.178 148.433 76.3459H156.094V75.8661C156.094 70.7973 156.128 65.7281 156.074 60.6597C156.057 59.0667 155.912 57.4588 155.644 55.8883L155.644 55.8878Z" fill="#2C3366" style="fill:#2C3366;fill:color(display-p3 0.1725 0.2000 0.4000);fill-opacity:1;"/>
<path id="Vector_7" d="M110.138 33.6012C111.339 34.0421 112.583 34.2831 113.852 34.2934C118.829 34.3349 123.807 34.3738 128.784 34.334C130.46 34.321 132.151 34.1779 133.805 33.9058C136.255 33.5023 138.247 32.3335 139.091 29.8424C139.422 28.8636 139.642 27.8094 139.689 26.7796C139.797 24.3499 139.79 21.9138 139.79 19.4805C139.79 18.5594 139.739 17.6302 139.611 16.7191C139.213 13.8941 137.727 11.8985 134.998 10.8854C133.176 10.2084 131.275 10.0094 129.355 10.0008C124.115 9.97738 118.874 9.99092 113.633 9.99001C113.498 9.99001 113.364 9.99001 113.221 9.99001V14.7786H113.814C118.76 14.7786 123.708 14.77 128.654 14.7876C129.406 14.7903 130.166 14.8634 130.906 14.9947C131.622 15.1216 132.246 15.4677 132.597 16.16C133.082 17.1158 133.077 18.1375 133.035 19.2179H132.453C126.624 19.2179 120.796 19.1939 114.968 19.2359C113.618 19.2454 112.247 19.3659 110.926 19.6348C108.688 20.0902 107.105 21.3673 106.716 23.7334C106.405 25.6261 106.434 27.54 106.671 29.4421C106.933 31.5523 108.173 32.8796 110.137 33.6012H110.138ZM113.29 25.0543C113.358 24.0985 114.057 23.5096 115.096 23.3963C115.372 23.3661 115.651 23.3548 115.929 23.3543C121.46 23.3521 126.99 23.3525 132.521 23.3525H133.121C133.05 24.6752 133.082 25.9442 132.89 27.1794C132.645 28.7557 131.662 29.531 130.011 29.675C129.365 29.731 128.716 29.763 128.069 29.7644C124.067 29.7725 120.066 29.7779 116.065 29.7571C115.519 29.7544 114.961 29.6475 114.433 29.5026C113.72 29.3077 113.31 28.7733 113.278 28.0486C113.235 27.0521 113.221 26.0485 113.291 25.0548L113.29 25.0543Z" fill="#2C3366" style="fill:#2C3366;fill:color(display-p3 0.1725 0.2000 0.4000);fill-opacity:1;"/>
<path id="Vector_8" d="M92.8831 15.9145C94.3868 16.0869 95.287 16.8663 95.6184 18.2693C95.7379 18.7752 95.8244 19.3023 95.8272 19.8204C95.8521 24.4578 95.8548 29.0951 95.8638 33.7325C95.8638 33.9257 95.8638 34.1184 95.8638 34.3278H102.598C102.598 34.1581 102.598 34.0511 102.598 33.9442C102.598 29.3835 102.624 24.8228 102.581 20.2626C102.569 18.9918 102.429 17.7093 102.214 16.4551C101.704 13.4717 99.9612 11.5465 97.0212 10.7085C95.1317 10.1697 93.1955 10.0108 91.2471 10.0009C86.764 9.97833 82.2813 9.99187 77.7981 9.99097C77.6202 9.99097 77.4422 9.99097 77.2244 9.99097V1.04382H70.5244V34.3219H77.2371V33.6991C77.2371 27.8907 77.2417 22.0822 77.2276 16.2737C77.2267 15.8441 77.3508 15.7372 77.7728 15.7385C81.9775 15.7539 86.1826 15.7394 90.3872 15.7548C91.2195 15.7579 92.0554 15.8188 92.8826 15.9141L92.8831 15.9145Z" fill="#2C3366" style="fill:#2C3366;fill:color(display-p3 0.1725 0.2000 0.4000);fill-opacity:1;"/>
<path id="Vector_9" d="M146.923 34.3296H153.754V15.4208H161.426V9.9874H153.741V2.02405H146.888V10.01H143.517V15.4425H146.923V34.3296Z" fill="#2C3366" style="fill:#2C3366;fill:color(display-p3 0.1725 0.2000 0.4000);fill-opacity:1;"/>
<path id="Vector_10" d="M69.834 76.341H77.6031V49.3181H69.834V76.341Z" fill="#2C3366" style="fill:#2C3366;fill:color(display-p3 0.1725 0.2000 0.4000);fill-opacity:1;"/>
<path id="Vector_11" d="M159.446 76.3455H167.208V49.3149H159.446V76.3455Z" fill="#2C3366" style="fill:#2C3366;fill:color(display-p3 0.1725 0.2000 0.4000);fill-opacity:1;"/>
<path id="Vector_12" d="M38.4075 13.6135C36.9613 13.5422 35.5064 13.5431 34.0598 13.6094C33.0161 13.6577 32.4306 14.238 32.3763 15.2895C32.3052 16.6691 32.3156 18.0582 32.3844 19.4382C32.4324 20.3972 33.0106 20.9509 33.9724 21.075C34.7045 21.1693 35.4485 21.1707 36.1974 21.214C36.9613 21.1698 37.7365 21.168 38.4994 21.0696C39.4467 20.9477 40.0267 20.366 40.0693 19.4138C40.1304 18.0478 40.1377 16.675 40.0765 15.3094C40.0299 14.2683 39.4453 13.6645 38.4075 13.6135Z" fill="#5876B7" style="fill:#5876B7;fill:color(display-p3 0.3451 0.4627 0.7176);fill-opacity:1;"/>
<path id="Vector_13" d="M27.7459 15.2534C27.6431 14.2516 27.1469 13.6821 26.1629 13.6265C24.6565 13.5417 23.1383 13.5422 21.6318 13.6238C20.6515 13.6771 20.0796 14.3229 20.0429 15.2981C19.9918 16.6497 19.9909 18.0067 20.0443 19.3583C20.0837 20.3552 20.6628 21.01 21.6585 21.0641C23.1636 21.1458 24.68 21.1391 26.1856 21.0574C27.1016 21.0077 27.6286 20.4057 27.7364 19.4923C27.8206 18.7761 27.8193 18.0505 27.8559 17.3289C27.8238 17.3284 27.7921 17.3275 27.76 17.3271C27.76 16.6353 27.8166 15.938 27.7464 15.2539L27.7459 15.2534Z" fill="#5876B7" style="fill:#5876B7;fill:color(display-p3 0.3451 0.4627 0.7176);fill-opacity:1;"/>
<path id="Vector_14" d="M76.072 39.4972C74.5679 39.3903 73.0474 39.3537 71.5441 39.4508C70.3922 39.5252 69.9 40.106 69.8465 41.2663C69.785 42.6012 69.8067 43.9437 69.8683 45.2795C69.909 46.1627 70.4148 46.7227 71.2851 46.8667C72.0716 46.9967 72.8798 46.9949 73.679 47.0513C73.6804 47.0247 73.6813 46.9976 73.6826 46.971C74.3315 46.971 74.9817 47.0007 75.6283 46.9646C76.8323 46.8974 77.492 46.3455 77.5649 45.1536C77.6482 43.7912 77.622 42.4166 77.5518 41.0519C77.5042 40.1299 77.0025 39.5636 76.0725 39.4977L76.072 39.4972Z" fill="#2C3366" style="fill:#2C3366;fill:color(display-p3 0.1725 0.2000 0.4000);fill-opacity:1;"/>
<path id="Vector_15" d="M52.4208 15.3947C52.3597 14.35 51.8403 13.6902 50.8197 13.6288C49.3137 13.5381 47.7959 13.5444 46.2886 13.6225C45.3282 13.6722 44.7794 14.2322 44.7165 15.2034C44.6282 16.5667 44.6019 17.9435 44.6906 19.3055C44.7676 20.4883 45.277 21.0091 46.486 21.0876C47.9431 21.1829 49.4169 21.1495 50.8749 21.0511C51.805 20.9884 52.3497 20.3096 52.4108 19.3646C52.4543 18.6904 52.4194 18.0108 52.4194 17.3334C52.4222 17.3334 52.4249 17.3334 52.4276 17.3334C52.4276 16.6867 52.4584 16.0387 52.4208 15.3943V15.3947Z" fill="#5876B7" style="fill:#5876B7;fill:color(display-p3 0.3451 0.4627 0.7176);fill-opacity:1;"/>
<path id="Vector_16" d="M165.721 39.4919C164.932 39.3754 164.124 39.3786 163.325 39.3285C163.324 39.3497 163.323 39.3705 163.322 39.3917C162.689 39.3917 162.054 39.3637 161.422 39.3975C160.17 39.4648 159.524 40.0375 159.463 41.2812C159.399 42.6007 159.423 43.928 159.483 45.2484C159.526 46.1763 160.029 46.7977 160.964 46.8654C162.497 46.9764 164.048 46.9971 165.58 46.8897C166.642 46.8153 167.121 46.257 167.18 45.1839C167.257 43.8052 167.238 42.4162 167.168 41.0361C167.122 40.1345 166.617 39.6236 165.721 39.4919Z" fill="#2C3366" style="fill:#2C3366;fill:color(display-p3 0.1725 0.2000 0.4000);fill-opacity:1;"/>
</g>
</svg>
