<svg width="729" height="280" viewBox="0 0 729 280" fill="none" xmlns="http://www.w3.org/2000/svg">
<path d="M30.3723 105.229C31.7628 105.591 33.2386 105.788 34.6745 105.793C45.8026 105.838 56.9321 105.906 68.0588 105.764C71.2359 105.724 73.1876 106.879 74.7197 109.614C80.3478 119.664 86.1051 129.643 91.8624 139.62C95.1151 145.258 98.3789 150.894 101.801 156.43C104.275 160.434 108.735 161.965 112.908 160.562C116.008 159.519 117.858 157.164 119.414 154.462C128.172 139.241 136.97 124.042 145.694 108.802C146.907 106.683 148.493 105.794 150.933 105.811C162.812 105.891 174.693 105.869 186.573 105.871C190.149 105.871 191.845 104.259 191.926 100.666C191.992 97.7609 191.991 94.8506 191.915 91.9457C191.831 88.7153 190.097 86.9709 186.88 86.9655C171.478 86.938 156.076 86.9421 140.674 86.9778C138.262 86.9833 136.148 87.8884 134.702 89.8923C132.76 92.5871 130.719 95.2406 129.07 98.1126C124.01 106.923 119.126 115.834 114.152 124.693C112.852 127.008 111.472 129.278 109.998 131.793C108.566 129.54 107.183 127.538 105.975 125.432C99.8024 114.668 93.6022 103.918 87.5685 93.076C85.1973 88.8169 81.9239 86.8034 76.9905 86.8995C68.1193 87.0712 59.2413 86.9764 50.3661 86.9256C45.119 86.8954 39.872 87.0973 34.647 86.1469C26.7592 84.7116 19.5605 76.446 19.5674 68.5898C19.5756 58.9796 19.676 49.3667 19.5 39.7579C19.2964 28.6163 27.253 21.2586 34.6483 19.87C37.1226 19.4058 39.6781 19.1805 42.1977 19.1709C50.1322 19.1393 58.0668 19.3124 66.0013 19.3165C105.446 19.3357 144.89 19.3261 184.334 19.3165C185.364 19.3165 186.4 19.2451 187.424 19.1338C190.254 18.8262 191.782 17.3126 191.911 14.4833C192.037 11.6745 191.937 8.85752 192.026 6.04602C192.127 2.88154 190.901 0.741675 187.675 0H35.5066C33.1808 0.468354 30.7973 0.745795 28.5389 1.43528C13.8679 5.91554 4.58686 15.5559 0.999894 30.513C0.522641 32.5032 0.325963 34.5593 0 36.5865V70.0731C0.0880237 70.3794 0.189801 70.683 0.262696 70.992C1.07692 74.4902 1.48265 78.1464 2.77 81.462C7.71995 94.2078 17.2898 101.818 30.3723 105.229Z" fill="#FAFAFA" style="fill:#FAFAFA;fill:color(display-p3 0.9792 0.9792 0.9792);fill-opacity:1;"/>
<path d="M162.111 132.326C161.5 132.658 160.957 133.278 160.601 133.89C147.037 157.265 133.498 180.654 119.956 204.042C116.107 210.686 112.255 217.33 108.305 224.146C107.945 223.549 107.652 223.089 107.382 222.615C90.7483 193.444 74.1214 164.27 57.4602 135.114C57.0476 134.393 56.3599 133.707 55.6351 133.302C39.7633 124.43 23.8682 115.6 7.97576 106.764C7.5494 106.526 7.1024 106.326 6.41059 105.981C6.74893 106.612 6.92773 106.976 7.13266 107.324C33.9276 153.079 60.7281 198.829 87.5203 244.585C94.4288 256.383 101.314 268.195 108.21 280H108.492C108.657 279.625 108.786 279.228 108.993 278.878C142.699 221.7 176.412 164.525 210.121 107.349C210.337 106.982 210.509 106.591 210.819 105.981C210.306 106.223 210.053 106.329 209.813 106.458C193.907 115.071 177.999 123.68 162.112 132.326H162.111Z" fill="#FAFAFA" style="fill:#FAFAFA;fill:color(display-p3 0.9792 0.9792 0.9792);fill-opacity:1;"/>
<path d="M728.759 178.172C728.365 175.347 728.127 172.49 727.567 169.698C725.611 159.93 719.905 153.469 710.306 150.508C705.157 148.92 699.864 148.141 694.514 148.062C682.823 147.89 671.129 147.871 659.435 147.884C652.481 147.893 645.554 148.331 638.818 150.284C630.544 152.682 624.381 157.5 621.868 165.972C620.746 169.754 620.005 173.736 619.752 177.671C619.344 183.979 619.329 190.326 619.453 196.65C619.536 200.898 619.903 205.173 620.563 209.371C622.289 220.339 628.619 227.303 639.404 230.188C645.34 231.776 651.407 232.349 657.514 232.397C668.596 232.485 679.685 232.597 690.762 232.346C696.129 232.224 701.553 231.688 706.819 230.661C719.187 228.246 725.606 221.493 727.913 209.1C728.399 206.492 728.645 203.84 729 201.207V179.257C728.917 178.896 728.809 178.538 728.758 178.172H728.759ZM705.225 201.742C704.902 207.967 701.004 211.34 694.305 212.151C691.608 212.476 688.883 212.694 686.168 212.718C677.81 212.788 669.449 212.802 661.092 212.701C658.386 212.668 655.65 212.396 652.986 211.917C646.846 210.813 643.832 207.977 643.192 201.848C642.36 193.878 642.225 185.836 643.347 177.867C644.12 172.379 647.332 169.261 652.935 168.625C657.49 168.109 662.102 168.066 666.693 167.895C669.178 167.801 671.67 167.878 674.158 167.878C674.158 167.919 674.158 167.96 674.158 168.002C679.465 168.002 684.771 167.94 690.076 168.033C692.081 168.068 694.111 168.308 696.075 168.716C701.83 169.911 704.965 173.029 705.235 178.863C705.587 186.478 705.621 194.136 705.225 201.745V201.742Z" fill="#FAFAFA" style="fill:#FAFAFA;fill:color(display-p3 0.9792 0.9792 0.9792);fill-opacity:1;"/>
<path d="M353.865 170.431C352.055 159.797 345.801 153.007 335.314 150.158C330.536 148.858 325.663 148.128 320.738 148.06C309.002 147.901 297.264 147.88 285.527 147.884C279.328 147.887 273.149 148.269 267.089 149.723C259.004 151.663 252.385 155.555 248.895 163.528C247.188 167.429 246.264 171.564 246.055 175.776C245.728 182.372 245.512 188.988 245.636 195.588C245.728 200.484 246.113 205.425 246.931 210.25C248.562 219.878 254.102 226.42 263.478 229.546C268.225 231.128 273.133 231.997 278.108 232.115C285.52 232.291 292.939 232.161 300.353 232.161C300.353 232.251 300.353 232.342 300.353 232.433C305.565 232.433 310.777 232.475 315.989 232.422C322.097 232.358 328.177 231.937 334.132 230.464C342.342 228.434 349.033 224.313 352.099 216.065C353.467 212.384 354.375 208.395 354.672 204.485C355.18 197.814 355.228 191.09 355.11 184.395C355.027 179.732 354.646 175.028 353.865 170.433V170.431ZM331.248 202.862C330.573 208.121 327.071 211.006 321.992 211.846C318.86 212.363 315.663 212.597 312.486 212.708C308.408 212.851 304.32 212.742 300.238 212.742C300.238 212.652 300.238 212.561 300.238 212.471C294.421 212.471 288.605 212.545 282.791 212.427C280.941 212.39 279.065 211.98 277.266 211.498C272.647 210.259 270.05 207.107 269.436 202.437C269.072 199.66 268.862 196.839 268.888 194.04C268.936 188.8 268.965 183.541 269.45 178.332C269.982 172.636 273.323 169.39 279.035 168.609C282.277 168.165 285.571 167.93 288.843 167.91C298.04 167.853 307.24 167.904 316.437 168.039C318.668 168.072 320.929 168.423 323.112 168.911C327.503 169.89 330.397 172.593 331.111 177.102C332.464 185.667 332.35 194.287 331.25 202.859L331.248 202.862Z" fill="#FAFAFA" style="fill:#FAFAFA;fill:color(display-p3 0.9792 0.9792 0.9792);fill-opacity:1;"/>
<path d="M620.981 148.031C620.453 147.949 620.189 147.872 619.923 147.871C610.531 147.864 601.14 147.853 591.748 147.895C591.158 147.898 590.469 148.204 589.995 148.582C576.031 159.737 562.089 170.92 548.141 182.096C546.187 183.662 544.224 185.215 542.002 186.984V120.669H518.666V232.364H542.024V192.624C542.624 193.062 543.004 193.315 543.358 193.602C559.019 206.316 574.674 219.037 590.354 231.728C590.847 232.126 591.596 232.405 592.228 232.408C601.901 232.45 611.575 232.438 621.248 232.433C621.573 232.433 621.897 232.364 622.449 232.302C604.394 217.653 586.553 203.175 568.577 188.59C586.04 175.075 603.415 161.626 620.981 148.03V148.031Z" fill="#FAFAFA" style="fill:#FAFAFA;fill:color(display-p3 0.9792 0.9792 0.9792);fill-opacity:1;"/>
<path d="M472.768 170.093C471.067 160.101 465.251 153.509 455.455 150.513C450.305 148.938 445.016 148.141 439.666 148.062C427.93 147.889 416.19 147.869 404.452 147.886C397.547 147.895 390.673 148.346 383.979 150.269C375.064 152.83 368.806 158.206 366.543 167.39C365.542 171.455 364.78 175.686 364.725 179.853C364.498 196.965 364.583 214.082 364.557 231.196C364.557 231.56 364.605 231.924 364.635 232.361H387.777V230.563C387.777 215.558 387.753 200.553 387.802 185.548C387.81 183.119 388.018 180.676 388.348 178.27C389.008 173.445 391.628 170.153 396.448 168.938C398.435 168.438 400.511 168.063 402.55 168.037C412.549 167.911 422.551 167.871 432.553 167.915C435.309 167.927 438.089 168.169 440.812 168.595C446.26 169.445 449.361 172.538 450.245 177.918C450.609 180.128 450.82 182.39 450.829 184.629C450.881 200.009 450.862 215.389 450.864 230.769C450.864 231.308 450.864 231.846 450.864 232.357H474.136V230.897C474.136 215.47 474.237 200.042 474.075 184.617C474.024 179.768 473.583 174.875 472.77 170.095L472.768 170.093Z" fill="#FAFAFA" style="fill:#FAFAFA;fill:color(display-p3 0.9792 0.9792 0.9792);fill-opacity:1;"/>
<path d="M334.545 102.265C338.191 103.606 341.972 104.34 345.824 104.371C360.944 104.498 376.063 104.616 391.181 104.495C396.272 104.455 401.41 104.02 406.432 103.192C413.874 101.964 419.924 98.4065 422.488 90.8249C423.496 87.8459 424.164 84.6375 424.304 81.5032C424.635 74.1084 424.613 66.6944 424.613 59.2887C424.613 56.4854 424.457 53.6574 424.068 50.8844C422.859 42.2865 418.346 36.213 410.057 33.1295C404.521 31.0693 398.747 30.4636 392.917 30.4375C376.999 30.3661 361.08 30.4073 345.162 30.4046C344.752 30.4046 344.342 30.4046 343.91 30.4046V44.9785H345.709C360.735 44.9785 375.762 44.9524 390.788 45.0059C393.071 45.0142 395.38 45.2367 397.628 45.6364C399.802 46.0223 401.696 47.0758 402.763 49.1827C404.236 52.0917 404.223 55.2012 404.095 58.4893H402.325C384.621 58.4893 366.917 58.4165 349.216 58.5442C345.116 58.5731 340.95 58.9398 336.938 59.7584C330.141 61.1442 325.33 65.0311 324.15 72.2323C323.207 77.9926 323.293 83.8175 324.012 89.6067C324.81 96.029 328.576 100.068 334.542 102.265H334.545ZM344.119 76.2524C344.324 73.3434 346.449 71.551 349.605 71.2063C350.443 71.1143 351.29 71.0799 352.135 71.0785C368.933 71.0717 385.734 71.073 402.532 71.073H404.356C404.14 75.0987 404.238 78.9609 403.655 82.7201C402.911 87.5176 399.923 89.8772 394.907 90.3154C392.947 90.4857 390.975 90.5832 389.008 90.5873C376.854 90.6121 364.701 90.6285 352.547 90.5654C350.89 90.5571 349.194 90.2316 347.589 89.7907C345.424 89.1974 344.18 87.5712 344.083 85.3654C343.953 82.3328 343.909 79.2782 344.12 76.2538L344.119 76.2524Z" fill="#FAFAFA" style="fill:#FAFAFA;fill:color(display-p3 0.9792 0.9792 0.9792);fill-opacity:1;"/>
<path d="M282.132 48.4355C286.7 48.9601 289.434 51.3321 290.441 55.6022C290.804 57.1419 291.067 58.7461 291.075 60.3229C291.151 74.4367 291.159 88.5504 291.187 102.664C291.187 103.252 291.187 103.839 291.187 104.476H311.642C311.642 103.959 311.642 103.634 311.642 103.308C311.642 89.4281 311.721 75.5478 311.59 61.6689C311.553 57.8012 311.129 53.8978 310.476 50.0809C308.925 41.0009 303.632 35.1416 294.702 32.5911C288.963 30.9512 283.081 30.4677 277.163 30.4375C263.546 30.3688 249.93 30.41 236.312 30.4073C235.771 30.4073 235.231 30.4073 234.569 30.4073V3.17685H214.218V104.458H234.608V102.563C234.608 84.8846 234.622 67.2067 234.579 49.5288C234.576 48.2212 234.953 47.8957 236.235 47.8998C249.007 47.9465 261.78 47.9026 274.551 47.9493C277.079 47.9589 279.618 48.1443 282.131 48.4341L282.132 48.4355Z" fill="#FAFAFA" style="fill:#FAFAFA;fill:color(display-p3 0.9792 0.9792 0.9792);fill-opacity:1;"/>
<path d="M446.28 104.481H467.028V46.9329H490.332V30.3963H466.988V6.16003H446.172V30.465H435.932V46.9988H446.28V104.481Z" fill="#FAFAFA" style="fill:#FAFAFA;fill:color(display-p3 0.9792 0.9792 0.9792);fill-opacity:1;"/>
<path d="M212.121 232.342H235.719V150.098H212.121V232.342Z" fill="#FAFAFA" style="fill:#FAFAFA;fill:color(display-p3 0.9792 0.9792 0.9792);fill-opacity:1;"/>
<path d="M484.317 232.356H507.895V150.089H484.317V232.356Z" fill="#FAFAFA" style="fill:#FAFAFA;fill:color(display-p3 0.9792 0.9792 0.9792);fill-opacity:1;"/>
<path d="M116.663 41.4322C112.27 41.2151 107.851 41.2179 103.457 41.4198C100.286 41.5668 98.5081 43.333 98.3431 46.5332C98.1272 50.7319 98.1588 54.9595 98.3679 59.1595C98.5136 62.0782 100.27 63.7634 103.191 64.1411C105.415 64.4282 107.675 64.4323 109.95 64.5642C112.27 64.4296 114.625 64.4241 116.942 64.1246C119.82 63.7538 121.581 61.9834 121.711 59.0854C121.896 54.9279 121.918 50.7498 121.733 46.5937C121.591 43.4251 119.815 41.5874 116.663 41.4322Z" fill="#FAFAFA" style="fill:#FAFAFA;fill:color(display-p3 0.9792 0.9792 0.9792);fill-opacity:1;"/>
<path d="M84.2785 46.4234C83.9663 43.3742 82.4589 41.6409 79.4702 41.472C74.8944 41.2138 70.2828 41.2151 65.7069 41.4637C62.7292 41.6258 60.9921 43.5913 60.8807 46.5593C60.7253 50.6729 60.7226 54.8029 60.8849 58.9164C61.0045 61.9504 62.7636 63.9434 65.7881 64.1082C70.3598 64.3568 74.9659 64.3362 79.539 64.0876C82.3214 63.9365 83.9223 62.1043 84.2497 59.3244C84.5055 57.1447 84.5013 54.9361 84.6128 52.7399C84.5151 52.7386 84.4188 52.7358 84.3212 52.7345C84.3212 50.6289 84.4931 48.5069 84.2799 46.4247L84.2785 46.4234Z" fill="#FAFAFA" style="fill:#FAFAFA;fill:color(display-p3 0.9792 0.9792 0.9792);fill-opacity:1;"/>
<path d="M231.069 120.209C226.5 119.883 221.882 119.772 217.315 120.068C213.816 120.294 212.321 122.062 212.159 125.593C211.972 129.656 212.038 133.742 212.225 137.807C212.349 140.495 213.885 142.2 216.529 142.638C218.918 143.033 221.373 143.028 223.8 143.2C223.804 143.118 223.807 143.036 223.811 142.955C225.782 142.955 227.757 143.046 229.721 142.936C233.378 142.731 235.382 141.051 235.604 137.424C235.857 133.278 235.777 129.094 235.564 124.941C235.419 122.135 233.895 120.411 231.07 120.21L231.069 120.209Z" fill="#FAFAFA" style="fill:#FAFAFA;fill:color(display-p3 0.9792 0.9792 0.9792);fill-opacity:1;"/>
<path d="M159.228 46.8532C159.042 43.6737 157.465 41.6656 154.365 41.4789C149.79 41.2028 145.18 41.222 140.601 41.4596C137.684 41.6107 136.017 43.3152 135.826 46.2709C135.558 50.4202 135.478 54.6106 135.748 58.7557C135.982 62.3556 137.529 63.9406 141.201 64.1796C145.627 64.4694 150.104 64.3678 154.533 64.0683C157.358 63.8774 159.012 61.8117 159.198 58.9357C159.33 56.8837 159.224 54.8153 159.224 52.7537C159.232 52.7537 159.24 52.7537 159.249 52.7537C159.249 50.7855 159.342 48.8132 159.228 46.8519V46.8532Z" fill="#FAFAFA" style="fill:#FAFAFA;fill:color(display-p3 0.9792 0.9792 0.9792);fill-opacity:1;"/>
<path d="M503.379 120.193C500.98 119.838 498.528 119.848 496.099 119.695C496.096 119.76 496.093 119.823 496.091 119.888C494.166 119.888 492.238 119.802 490.319 119.905C486.515 120.11 484.554 121.853 484.37 125.638C484.173 129.654 484.246 133.694 484.43 137.713C484.559 140.536 486.087 142.428 488.928 142.634C493.583 142.972 498.295 143.035 502.95 142.708C506.175 142.481 507.63 140.782 507.81 137.516C508.043 133.32 507.986 129.093 507.773 124.893C507.634 122.148 506.099 120.594 503.379 120.193Z" fill="#FAFAFA" style="fill:#FAFAFA;fill:color(display-p3 0.9792 0.9792 0.9792);fill-opacity:1;"/>
</svg>
