<svg width="26" height="26" viewBox="0 0 26 26" fill="none" xmlns="http://www.w3.org/2000/svg">
<path id="Vector" d="M22.3345 0C21.9696 0 21.6222 0.169589 21.3303 0.468864L20.6316 1.1542L24.7361 5.36201L25.4056 4.64574C25.9894 4.04719 25.9894 3.15535 25.4056 2.5568L23.3679 0.467866C23.076 0.168591 22.6994 0 22.3345 0ZM19.9621 1.74677L18.8975 2.65158L23.2764 7.1407L24.2495 6.14312L19.9621 1.74677ZM18.3195 3.36784L9.53243 12.2842C9.48795 12.3219 9.44691 12.3636 9.40982 12.4089L9.34949 12.4399C9.24335 12.5645 9.17 12.7149 9.13638 12.8768L7.95018 17.1474C7.89934 17.3165 7.89442 17.4965 7.93597 17.6682C7.97751 17.8399 8.06394 17.9967 8.18594 18.1218C8.30795 18.2469 8.46093 18.3355 8.6284 18.3781C8.79587 18.4207 8.9715 18.4156 9.13638 18.3635L13.3022 17.1474C13.4405 17.1138 13.5697 17.0488 13.6802 16.9571C13.7907 16.8654 13.8797 16.7494 13.9406 16.6177L22.5778 7.85696L20.9352 6.04834V6.14212L19.7791 4.95699H19.8706L18.3195 3.36784ZM1.29128 4.05318C1.06584 4.09714 0.862809 4.22135 0.718048 4.40389C0.573286 4.58643 0.49611 4.81554 0.500151 5.05076V25.0024C0.500151 25.267 0.602673 25.5207 0.785164 25.7078C0.967655 25.8949 1.21517 26 1.47325 26H20.9352C21.1933 26 21.4408 25.8949 21.6233 25.7078C21.8058 25.5207 21.9083 25.267 21.9083 25.0024V14.029C21.9083 13.7644 21.8058 13.5107 21.6233 13.3236C21.4408 13.1365 21.1933 13.0314 20.9352 13.0314C20.6771 13.0314 20.4296 13.1365 20.2471 13.3236C20.0646 13.5107 19.9621 13.7644 19.9621 14.029V24.0048H2.44634V6.04834H12.1773C12.4354 6.04834 12.6829 5.94324 12.8654 5.75616C13.0479 5.56908 13.1504 5.31534 13.1504 5.05076C13.1504 4.78619 13.0479 4.53245 12.8654 4.34536C12.6829 4.15828 12.4354 4.05318 12.1773 4.05318H1.47325C1.44277 4.05171 1.41225 4.05171 1.38178 4.05318C1.3513 4.05171 1.32078 4.05171 1.29031 4.05318H1.29128ZM10.8403 13.8425L12.1783 13.9352L12.2698 15.4316L10.9317 15.8366L10.415 15.3079L10.8403 13.8425Z" fill="#C9D3DC" style="fill:#C9D3DC;fill:color(display-p3 0.7870 0.8263 0.8625);fill-opacity:1;"/>
</svg>
