<svg width="25" height="24" viewBox="0 0 25 24" fill="none" xmlns="http://www.w3.org/2000/svg">
<path id="Vector" d="M15.759 17.4804C13.7967 19.0048 11.3271 19.7239 8.85316 19.4914C6.37922 19.2589 4.08692 18.0922 2.443 16.2289C0.799084 14.3655 -0.0728395 11.9457 0.00476967 9.46208C0.0823788 6.97846 1.10368 4.61778 2.86073 2.86073C4.61778 1.10368 6.97846 0.0823788 9.46208 0.00476967C11.9457 -0.0728395 14.3655 0.799084 16.2289 2.443C18.0922 4.08692 19.2589 6.37922 19.4914 8.85316C19.7239 11.3271 19.0048 13.7967 17.4804 15.759L24.0122 22.2663L22.2785 24L15.7712 17.4804H15.759ZM9.77661 17.0898C10.7386 17.0898 11.6911 16.9003 12.5799 16.5321C13.4686 16.164 14.2762 15.6244 14.9564 14.9442C15.6366 14.264 16.1762 13.4564 16.5443 12.5677C16.9125 11.6789 17.102 10.7264 17.102 9.7644C17.102 8.80242 16.9125 7.84986 16.5443 6.96111C16.1762 6.07235 15.6366 5.26481 14.9564 4.58459C14.2762 3.90437 13.4686 3.36479 12.5799 2.99665C11.6911 2.62852 10.7386 2.43904 9.77661 2.43904C7.8338 2.43904 5.97057 3.21082 4.5968 4.58459C3.22303 5.95836 2.45125 7.82159 2.45125 9.7644C2.45125 11.7072 3.22303 13.5704 4.5968 14.9442C5.97057 16.318 7.8338 17.0898 9.77661 17.0898Z" fill="#3C4553" style="fill:#3C4553;fill:color(display-p3 0.2370 0.2722 0.3250);fill-opacity:1;"/>
</svg>
