<svg width="36" height="36" viewBox="0 0 36 36" fill="none" xmlns="http://www.w3.org/2000/svg">
<path id="Vector" d="M31.89 19.2558H26.1647V16.3256H31.89V19.2558ZM31.89 20.9302H26.1647V23.8605H31.89V20.9302ZM31.89 7.11627H26.1647V10.0465H31.89V7.11627ZM31.89 11.7209H26.1647V14.6511H31.89V11.7209ZM31.89 25.5349H26.1647V28.4651H31.89V25.5348V25.5349ZM35.8445 31.3116C35.681 32.1824 34.6586 32.2032 33.9756 32.2326H21.2573V36H18.7177L0 32.6511V3.35305L18.8281 0H21.2573V3.33628H33.5381C34.2292 3.36557 34.9899 3.31533 35.591 3.7381C36.0122 4.35764 35.9714 5.14466 36 5.85625L35.9836 27.6488C35.9632 28.867 36.094 30.1103 35.8445 31.3116ZM14.9962 24.7437C13.8675 22.3996 12.7184 20.0721 11.5938 17.7279C12.7061 15.4465 13.8021 13.1568 14.894 10.867C13.9657 10.913 13.0373 10.9716 12.1132 11.0386C11.422 12.759 10.6163 14.4335 10.0766 16.2126C9.57354 14.534 8.90697 12.9181 8.29765 11.2814C7.39793 11.3316 6.49821 11.386 5.59856 11.4404C6.54729 13.5838 7.55747 15.6976 8.47758 17.8535C7.39385 19.9465 6.37966 22.0689 5.32863 24.1744C6.2242 24.2121 7.11984 24.2498 8.01541 24.2623C8.65343 22.5963 9.44676 20.993 10.0029 19.2935C10.5019 21.1186 11.3484 22.8056 12.0436 24.5511C13.0292 24.6224 14.0106 24.6852 14.9962 24.7437ZM34.0495 5.32437H21.2573V7.11627H24.5289V10.0465H21.2573V11.7209H24.5289V14.6511H21.2573V16.3256H24.5289V19.2558H21.2573V20.9302H24.5289V23.8605H21.2573V25.5349H24.5289V28.4651H21.2573V30.401H34.0495V5.32437Z" fill="#FAFAFA" style="fill:#FAFAFA;fill:color(display-p3 0.9792 0.9792 0.9792);fill-opacity:1;"/>
</svg>
