<svg width="115" height="44" viewBox="0 0 115 44" fill="none" xmlns="http://www.w3.org/2000/svg">
<g id="Logo">
<path id="Vector" d="M4.79124 16.5359C5.01059 16.5929 5.2434 16.6238 5.46991 16.6246C7.22537 16.6317 8.98105 16.6423 10.7363 16.6201C11.2375 16.6138 11.5454 16.7953 11.7871 17.2251C12.6749 18.8043 13.5831 20.3725 14.4913 21.9403C15.0044 22.8263 15.5193 23.7119 16.0591 24.5819C16.4494 25.211 17.153 25.4517 17.8113 25.2311C18.3004 25.0673 18.5922 24.6971 18.8376 24.2726C20.2192 21.8808 21.6071 19.4924 22.9833 17.0975C23.1747 16.7645 23.4249 16.6248 23.8098 16.6274C25.6837 16.6399 27.5578 16.6365 29.432 16.6369C29.9961 16.6369 30.2636 16.3835 30.2764 15.8189C30.2868 15.3624 30.2866 14.9051 30.2747 14.4486C30.2614 13.941 29.9878 13.6669 29.4804 13.666C27.0508 13.6617 24.621 13.6623 22.1914 13.6679C21.8109 13.6688 21.4774 13.811 21.2493 14.1259C20.943 14.5494 20.621 14.9664 20.3609 15.4177C19.5627 16.8022 18.7922 18.2026 18.0075 19.5947C17.8024 19.9583 17.5848 20.3151 17.3522 20.7103C17.1264 20.3563 16.9081 20.0417 16.7176 19.7108C15.7439 18.0193 14.7658 16.33 13.814 14.6262C13.4399 13.9569 12.9235 13.6405 12.1453 13.6556C10.7458 13.6826 9.34534 13.6677 7.94526 13.6597C7.11754 13.655 6.28982 13.6867 5.46557 13.5374C4.22127 13.3118 3.08568 12.0129 3.08676 10.7784C3.08806 9.26822 3.1039 7.75762 3.07613 6.24767C3.04402 4.49684 4.29916 3.34064 5.46579 3.12243C5.85611 3.04948 6.25923 3.01408 6.65671 3.01257C7.90838 3.00761 9.16005 3.0348 10.4117 3.03545C16.6341 3.03847 22.8564 3.03696 29.0788 3.03545C29.2413 3.03545 29.4046 3.02423 29.5663 3.00674C30.0126 2.9584 30.2536 2.72055 30.274 2.27594C30.294 1.83457 30.2781 1.3919 30.2922 0.950089C30.3081 0.452814 30.1148 0.116549 29.6058 0H5.60117C5.23428 0.0735984 4.85828 0.117196 4.50203 0.225544C2.18766 0.929585 0.723579 2.4445 0.157734 4.79491C0.0824468 5.10765 0.0514207 5.43074 0 5.74931V11.0115C0.0138858 11.0596 0.0299412 11.1073 0.0414403 11.1559C0.169884 11.7056 0.233888 12.2801 0.436968 12.8012C1.21783 14.8041 2.72747 16 4.79124 16.5359Z" fill="#3C4553" style="fill:#3C4553;fill:color(display-p3 0.2370 0.2722 0.3250);fill-opacity:1;"/>
<path id="Vector_2" d="M25.573 20.794C25.4767 20.8463 25.391 20.9436 25.3348 21.0399C23.1951 24.7131 21.0593 28.3885 18.923 32.0637C18.316 33.1079 17.7083 34.1518 17.0851 35.223C17.0283 35.1291 16.9821 35.0568 16.9396 34.9823C14.3156 30.3983 11.6927 25.8138 9.06437 21.2322C8.99928 21.1189 8.8908 21.0112 8.77646 20.9475C6.27268 19.5532 3.76521 18.1656 1.25818 16.7772C1.19092 16.7399 1.12041 16.7083 1.01128 16.6542C1.06465 16.7532 1.09286 16.8104 1.12518 16.8653C5.3521 24.0552 9.57988 31.2446 13.8064 38.4348C14.8962 40.2888 15.9823 42.1449 17.0702 44H17.1146C17.1407 43.9411 17.1611 43.8787 17.1936 43.8237C22.5108 34.8386 27.829 25.854 33.1466 16.8691C33.1807 16.8115 33.2078 16.75 33.2569 16.6542C33.1759 16.6922 33.136 16.7088 33.098 16.7291C30.5888 18.0825 28.0794 19.4354 25.5732 20.794H25.573Z" fill="#3C4553" style="fill:#3C4553;fill:color(display-p3 0.2370 0.2722 0.3250);fill-opacity:1;"/>
<path id="Vector_3" d="M114.962 27.9985C114.9 27.5545 114.862 27.1056 114.774 26.6668C114.465 25.1318 113.565 24.1165 112.051 23.6512C111.239 23.4017 110.404 23.2793 109.56 23.2668C107.716 23.2398 105.871 23.2368 104.026 23.239C102.929 23.2403 101.836 23.3091 100.774 23.616C99.4686 23.9929 98.4963 24.75 98.0999 26.0812C97.9229 26.6756 97.8059 27.3013 97.766 27.9197C97.7018 28.911 97.6994 29.9084 97.7189 30.9021C97.732 31.5696 97.7899 32.2415 97.894 32.9011C98.1663 34.6247 99.1648 35.719 100.866 36.1724C101.803 36.4219 102.76 36.5119 103.723 36.5195C105.471 36.5333 107.22 36.551 108.968 36.5115C109.815 36.4923 110.67 36.4081 111.501 36.2467C113.452 35.8672 114.465 34.806 114.829 32.8586C114.905 32.4487 114.944 32.0319 115 31.6182V28.169C114.987 28.1122 114.97 28.0559 114.962 27.9985H114.962ZM111.25 31.7024C111.199 32.6805 110.584 33.2106 109.527 33.3379C109.101 33.3891 108.672 33.4234 108.243 33.4271C106.925 33.4381 105.606 33.4402 104.288 33.4245C103.861 33.4193 103.429 33.3766 103.009 33.3012C102.04 33.1277 101.565 32.682 101.464 31.719C101.332 30.4665 101.311 29.2028 101.488 27.9506C101.61 27.0881 102.117 26.5982 103.001 26.4982C103.719 26.4171 104.447 26.4104 105.171 26.3834C105.563 26.3687 105.956 26.3808 106.349 26.3808C106.349 26.3873 106.349 26.3938 106.349 26.4002C107.186 26.4002 108.023 26.3905 108.86 26.4052C109.176 26.4106 109.496 26.4484 109.806 26.5125C110.714 26.7003 111.209 27.1902 111.251 28.107C111.307 29.3036 111.312 30.5071 111.25 31.7028V31.7024Z" fill="#3C4553" style="fill:#3C4553;fill:color(display-p3 0.2370 0.2722 0.3250);fill-opacity:1;"/>
<path id="Vector_4" d="M55.8223 26.782C55.5368 25.1109 54.5502 24.044 52.8959 23.5962C52.1422 23.392 51.3734 23.2772 50.5965 23.2666C48.7451 23.2416 46.8935 23.2383 45.042 23.239C44.0641 23.2394 43.0893 23.2994 42.1333 23.528C40.858 23.8327 39.8138 24.4444 39.2633 25.6973C38.9941 26.3102 38.8483 26.9601 38.8153 27.6219C38.7636 28.6585 38.7296 29.6981 38.7491 30.7352C38.7636 31.5047 38.8244 32.281 38.9535 33.0392C39.2108 34.5522 40.0847 35.5802 41.5638 36.0714C42.3125 36.3201 43.0869 36.4567 43.8717 36.4752C45.0409 36.5029 46.2112 36.4824 47.3809 36.4824C47.3809 36.4966 47.3809 36.5109 47.3809 36.5251C48.2029 36.5251 49.0252 36.5318 49.8473 36.5234C50.8109 36.5134 51.7701 36.4472 52.7095 36.2158C54.0046 35.8968 55.0601 35.2491 55.5437 33.953C55.7596 33.3746 55.9028 32.7478 55.9497 32.1334C56.0297 31.0851 56.0373 30.0284 56.0187 28.9764C56.0056 28.2437 55.9456 27.5044 55.8223 26.7823V26.782ZM52.2545 31.8783C52.148 32.7047 51.5956 33.1581 50.7944 33.29C50.3003 33.3714 49.7959 33.4081 49.2947 33.4256C48.6514 33.448 48.0066 33.4309 47.3626 33.4309C47.3626 33.4167 47.3626 33.4025 47.3626 33.3882C46.4451 33.3882 45.5275 33.3999 44.6104 33.3813C44.3186 33.3755 44.0227 33.3112 43.7389 33.2354C43.0101 33.0407 42.6005 32.5454 42.5037 31.8116C42.4462 31.3752 42.413 30.9318 42.4171 30.492C42.4247 29.6686 42.4293 28.8422 42.5059 28.0235C42.5898 27.1285 43.1168 26.6184 44.0179 26.4956C44.5293 26.4259 45.0489 26.389 45.5651 26.3858C47.0159 26.3769 48.4672 26.3849 49.918 26.4061C50.27 26.4113 50.6266 26.4665 50.971 26.5431C51.6637 26.697 52.1202 27.1218 52.2328 27.8303C52.4463 29.1763 52.4283 30.5308 52.2548 31.8778L52.2545 31.8783Z" fill="#3C4553" style="fill:#3C4553;fill:color(display-p3 0.2370 0.2722 0.3250);fill-opacity:1;"/>
<path id="Vector_5" d="M97.96 23.2621C97.8767 23.2491 97.835 23.237 97.7931 23.2368C96.3115 23.2357 94.83 23.234 93.3484 23.2407C93.2553 23.2411 93.1466 23.2893 93.072 23.3486C90.8691 25.1016 88.6698 26.8589 86.4695 28.6151C86.1612 28.8612 85.8516 29.1053 85.501 29.3833V18.9623H81.8197V36.5143H85.5044V30.2695C85.599 30.3383 85.6591 30.378 85.7149 30.4231C88.1855 32.4211 90.655 34.4201 93.1286 36.4144C93.2063 36.477 93.3245 36.5208 93.4241 36.5212C94.95 36.5279 96.4762 36.526 98.0021 36.5251C98.0533 36.5251 98.1045 36.5143 98.1915 36.5046C95.3434 34.2026 92.5289 31.9275 89.6932 29.6356C92.448 27.5118 95.1889 25.3984 97.96 23.2619V23.2621Z" fill="#3C4553" style="fill:#3C4553;fill:color(display-p3 0.2370 0.2722 0.3250);fill-opacity:1;"/>
<path id="Vector_6" d="M74.5794 26.729C74.311 25.1588 73.3935 24.1228 71.8482 23.6521C71.0357 23.4045 70.2015 23.2794 69.3575 23.2668C67.5061 23.2396 65.6541 23.2366 63.8025 23.2392C62.7131 23.2407 61.6287 23.3115 60.5728 23.6137C59.1664 24.0162 58.1792 24.861 57.8223 26.3042C57.6643 26.9429 57.5442 27.6078 57.5355 28.2627C57.4997 30.9517 57.5131 33.6414 57.509 36.3309C57.509 36.3881 57.5166 36.4453 57.5214 36.5139H61.172V36.2314C61.172 33.8734 61.1681 31.5155 61.1759 29.1575C61.1772 28.7759 61.21 28.392 61.2621 28.0138C61.3662 27.2556 61.7795 26.7383 62.5398 26.5475C62.8533 26.4689 63.1807 26.41 63.5024 26.4059C65.0798 26.386 66.6576 26.3798 68.2353 26.3867C68.6701 26.3886 69.1086 26.4266 69.5382 26.4935C70.3976 26.6271 70.8869 27.1132 71.0264 27.9586C71.0836 28.3058 71.1171 28.6613 71.1184 29.0131C71.1266 31.43 71.1236 33.8469 71.124 36.2638C71.124 36.3484 71.124 36.433 71.124 36.5133H74.7951V36.2838C74.7951 33.8596 74.8111 31.4352 74.7855 29.0112C74.7775 28.2493 74.7078 27.4803 74.5796 26.7292L74.5794 26.729Z" fill="#3C4553" style="fill:#3C4553;fill:color(display-p3 0.2370 0.2722 0.3250);fill-opacity:1;"/>
<path id="Vector_7" d="M52.7746 16.0701C53.3498 16.281 53.9462 16.3962 54.5539 16.4012C56.939 16.4211 59.3241 16.4396 61.709 16.4206C62.512 16.4144 63.3226 16.346 64.1147 16.2158C65.2887 16.0229 66.2431 15.4639 66.6476 14.2725C66.8066 13.8043 66.9121 13.3001 66.9342 12.8076C66.9863 11.6456 66.9828 10.4805 66.9828 9.31677C66.9828 8.87626 66.9583 8.43186 66.8969 7.9961C66.7062 6.64499 65.9943 5.69059 64.6866 5.20605C63.8134 4.8823 62.9025 4.78712 61.9828 4.78302C59.4717 4.77179 56.9605 4.77827 54.4494 4.77784C54.3847 4.77784 54.32 4.77784 54.2519 4.77784V7.06802H54.5357C56.9061 7.06802 59.2766 7.06392 61.647 7.07234C62.0071 7.07363 62.3714 7.1086 62.7259 7.17141C63.0689 7.23205 63.3677 7.3976 63.5361 7.72868C63.7684 8.18581 63.7663 8.67445 63.7461 9.19115H63.4669C60.6741 9.19115 57.8813 9.17972 55.089 9.19979C54.4422 9.20432 53.785 9.26195 53.1521 9.39058C52.0799 9.60836 51.3209 10.2192 51.1348 11.3508C50.9859 12.256 50.9996 13.1713 51.1131 14.081C51.2389 15.0903 51.833 15.725 52.7742 16.0701H52.7746ZM54.2849 11.9825C54.3172 11.5254 54.6524 11.2437 55.1504 11.1895C55.2825 11.1751 55.4162 11.1697 55.5494 11.1695C58.1994 11.1684 60.8496 11.1686 63.4996 11.1686H63.7873C63.7533 11.8012 63.7687 12.4081 63.6767 12.9988C63.5593 13.7527 63.088 14.1235 62.2968 14.1924C61.9876 14.2192 61.6765 14.2345 61.3662 14.2351C59.4489 14.239 57.5318 14.2416 55.6145 14.2317C55.353 14.2304 55.0855 14.1792 54.8323 14.1099C54.4908 14.0167 54.2944 13.7612 54.2793 13.4145C54.2586 12.938 54.2517 12.458 54.2851 11.9827L54.2849 11.9825Z" fill="#3C4553" style="fill:#3C4553;fill:color(display-p3 0.2370 0.2722 0.3250);fill-opacity:1;"/>
<path id="Vector_8" d="M44.5065 7.61128C45.227 7.69372 45.6584 8.06646 45.8172 8.73748C45.8745 8.97943 45.9159 9.23152 45.9172 9.47929C45.9291 11.6972 45.9304 13.9151 45.9348 16.1329C45.9348 16.2253 45.9348 16.3175 45.9348 16.4176H49.1617C49.1617 16.3365 49.1617 16.2853 49.1617 16.2342C49.1617 14.053 49.1741 11.8718 49.1534 9.69081C49.1476 9.08303 49.0808 8.46964 48.9777 7.86984C48.733 6.44298 47.8981 5.52225 46.4893 5.12145C45.5839 4.86375 44.6562 4.78777 43.7226 4.78302C41.5744 4.77223 39.4265 4.77871 37.2783 4.77828C37.193 4.77828 37.1078 4.77828 37.0034 4.77828V0.499207H33.793V16.4148H37.0095V16.117C37.0095 13.339 37.0116 10.561 37.0049 7.78308C37.0045 7.57761 37.0639 7.52645 37.2661 7.5271C39.2809 7.53444 41.2958 7.52753 43.3106 7.53487C43.7094 7.53638 44.1099 7.56552 44.5063 7.61106L44.5065 7.61128Z" fill="#3C4553" style="fill:#3C4553;fill:color(display-p3 0.2370 0.2722 0.3250);fill-opacity:1;"/>
<path id="Vector_9" d="M70.4008 16.4185H73.6738V7.37518H77.35V4.77658H73.6675V0.968018H70.3837V4.78737H68.7684V7.38554H70.4008V16.4185Z" fill="#3C4553" style="fill:#3C4553;fill:color(display-p3 0.2370 0.2722 0.3250);fill-opacity:1;"/>
<path id="Vector_10" d="M33.4621 36.5109H37.1848V23.5869H33.4621V36.5109Z" fill="#3C4553" style="fill:#3C4553;fill:color(display-p3 0.2370 0.2722 0.3250);fill-opacity:1;"/>
<path id="Vector_11" d="M76.4012 36.513H80.1207V23.5854H76.4012V36.513Z" fill="#3C4553" style="fill:#3C4553;fill:color(display-p3 0.2370 0.2722 0.3250);fill-opacity:1;"/>
<path id="Vector_12" d="M18.4036 6.51077C17.7106 6.47667 17.0135 6.4771 16.3203 6.50882C15.8202 6.53192 15.5397 6.80948 15.5137 7.31236C15.4796 7.97216 15.4846 8.63649 15.5176 9.2965C15.5406 9.75514 15.8176 10.02 16.2785 10.0793C16.6293 10.1244 16.9858 10.1251 17.3446 10.1458C17.7106 10.1246 18.0821 10.1238 18.4477 10.0767C18.9016 10.0185 19.1795 9.74025 19.1999 9.28485C19.2292 8.63153 19.2327 7.97497 19.2034 7.32186C19.181 6.82394 18.9009 6.53516 18.4036 6.51077Z" fill="#3C4553" style="fill:#3C4553;fill:color(display-p3 0.2370 0.2722 0.3250);fill-opacity:1;"/>
<path id="Vector_13" d="M13.295 7.2951C13.2457 6.81595 13.0079 6.54357 12.5365 6.51703C11.8146 6.47645 11.0871 6.47667 10.3653 6.51573C9.89557 6.5412 9.62154 6.85005 9.60396 7.31646C9.57945 7.96288 9.57901 8.61188 9.60462 9.2583C9.62349 9.73507 9.90099 10.0482 10.3781 10.0741C11.0993 10.1132 11.8259 10.11 12.5473 10.0709C12.9862 10.0472 13.2388 9.75924 13.2904 9.3224C13.3308 8.97988 13.3301 8.63282 13.3477 8.28771C13.3323 8.28749 13.3171 8.28706 13.3017 8.28684C13.3017 7.95597 13.3288 7.62251 13.2952 7.29531L13.295 7.2951Z" fill="#3C4553" style="fill:#3C4553;fill:color(display-p3 0.2370 0.2722 0.3250);fill-opacity:1;"/>
<path id="Vector_14" d="M36.4512 18.89C35.7305 18.8389 35.0019 18.8214 34.2816 18.8678C33.7296 18.9034 33.4938 19.1812 33.4682 19.7361C33.4387 20.3745 33.4491 21.0166 33.4786 21.6554C33.4981 22.0778 33.7405 22.3457 34.1575 22.4145C34.5343 22.4767 34.9216 22.4758 35.3046 22.5028C35.3052 22.4901 35.3057 22.4771 35.3063 22.4644C35.6172 22.4644 35.9288 22.4786 36.2386 22.4614C36.8155 22.4292 37.1316 22.1652 37.1666 21.5952C37.2065 20.9436 37.1939 20.2862 37.1603 19.6335C37.1375 19.1926 36.8971 18.9217 36.4514 18.8902L36.4512 18.89Z" fill="#3C4553" style="fill:#3C4553;fill:color(display-p3 0.2370 0.2722 0.3250);fill-opacity:1;"/>
<path id="Vector_15" d="M25.1183 7.36266C25.089 6.86301 24.8401 6.54746 24.3511 6.51811C23.6295 6.47473 22.9022 6.47775 22.1799 6.51509C21.7197 6.53883 21.4568 6.80668 21.4266 7.27114C21.3843 7.92317 21.3717 8.58167 21.4142 9.23305C21.4511 9.79874 21.6952 10.0478 22.2745 10.0854C22.9727 10.1309 23.6789 10.1149 24.3776 10.0679C24.8232 10.0379 25.0842 9.71327 25.1135 9.26132C25.1343 8.93887 25.1176 8.61383 25.1176 8.28987C25.1189 8.28987 25.1202 8.28987 25.1215 8.28987C25.1215 7.98058 25.1363 7.67065 25.1183 7.36244V7.36266Z" fill="#3C4553" style="fill:#3C4553;fill:color(display-p3 0.2370 0.2722 0.3250);fill-opacity:1;"/>
<path id="Vector_16" d="M79.4082 18.8874C79.0298 18.8317 78.6429 18.8332 78.2598 18.8093C78.2593 18.8194 78.2589 18.8293 78.2585 18.8395C77.9549 18.8395 77.6508 18.8261 77.3481 18.8423C76.748 18.8744 76.4386 19.1483 76.4095 19.7432C76.3785 20.3743 76.39 21.009 76.419 21.6405C76.4394 22.0843 76.6805 22.3815 77.1285 22.4139C77.8629 22.467 78.6063 22.4769 79.3405 22.4255C79.8493 22.3899 80.0788 22.1229 80.1072 21.6097C80.1439 20.9503 80.135 20.286 80.1014 19.626C80.0795 19.1947 79.8373 18.9504 79.4082 18.8874Z" fill="#3C4553" style="fill:#3C4553;fill:color(display-p3 0.2370 0.2722 0.3250);fill-opacity:1;"/>
</g>
</svg>
