<svg width="26" height="27" viewBox="0 0 26 27" fill="none" xmlns="http://www.w3.org/2000/svg">
<path id="Vector" d="M21.8345 0.5C21.4696 0.5 21.1222 0.669589 20.8303 0.968864L20.1316 1.6542L24.2361 5.86201L24.9056 5.14574C25.4894 4.54719 25.4894 3.65535 24.9056 3.0568L22.8679 0.967866C22.576 0.668591 22.1994 0.5 21.8345 0.5ZM19.4621 2.24677L18.3975 3.15158L22.7764 7.6407L23.7495 6.64312L19.4621 2.24677ZM17.8195 3.86784L9.03243 12.7842C8.98795 12.8219 8.94691 12.8636 8.90982 12.9089L8.84949 12.9399C8.74335 13.0645 8.67 13.2149 8.63638 13.3768L7.45018 17.6474C7.39934 17.8165 7.39442 17.9965 7.43597 18.1682C7.47751 18.3399 7.56394 18.4967 7.68594 18.6218C7.80795 18.7469 7.96093 18.8355 8.1284 18.8781C8.29587 18.9207 8.4715 18.9156 8.63638 18.8635L12.8022 17.6474C12.9405 17.6138 13.0697 17.5488 13.1802 17.4571C13.2907 17.3654 13.3797 17.2494 13.4406 17.1177L22.0778 8.35696L20.4352 6.54834V6.64212L19.2791 5.45699H19.3706L17.8195 3.86784ZM0.791278 4.55318C0.565841 4.59714 0.362809 4.72135 0.218048 4.90389C0.0732862 5.08643 -0.00389023 5.31554 0.000151026 5.55076V25.5024C0.000151026 25.767 0.102673 26.0207 0.285164 26.2078C0.467655 26.3949 0.715166 26.5 0.973248 26.5H20.4352C20.6933 26.5 20.9408 26.3949 21.1233 26.2078C21.3058 26.0207 21.4083 25.767 21.4083 25.5024V14.529C21.4083 14.2644 21.3058 14.0107 21.1233 13.8236C20.9408 13.6365 20.6933 13.5314 20.4352 13.5314C20.1771 13.5314 19.9296 13.6365 19.7471 13.8236C19.5646 14.0107 19.4621 14.2644 19.4621 14.529V24.5048H1.94634V6.54834H11.6773C11.9354 6.54834 12.1829 6.44324 12.3654 6.25616C12.5479 6.06908 12.6504 5.81534 12.6504 5.55076C12.6504 5.28619 12.5479 5.03245 12.3654 4.84536C12.1829 4.65828 11.9354 4.55318 11.6773 4.55318H0.973248C0.942774 4.55171 0.91225 4.55171 0.881776 4.55318C0.851303 4.55171 0.820779 4.55171 0.790305 4.55318H0.791278ZM10.3403 14.3425L11.6783 14.4352L11.7698 15.9316L10.4317 16.3366L9.91503 15.8079L10.3403 14.3425Z" fill="#2C3366" style="fill:#2C3366;fill:color(display-p3 0.1725 0.2000 0.4000);fill-opacity:1;"/>
</svg>
