<svg width="27" height="26" viewBox="0 0 27 26" fill="none" xmlns="http://www.w3.org/2000/svg">
<path d="M3.93717 18.5366C3.93717 18.5366 1.51272 22.1527 2.93066 23.5692C4.34718 24.9871 7.96323 22.5627 7.96323 22.5627" fill="#C9D3DC" style="fill:#C9D3DC;fill:color(display-p3 0.7870 0.8263 0.8625);fill-opacity:1;"/>
<path d="M3.93717 18.5366C3.93717 18.5366 1.51272 22.1527 2.93066 23.5692C4.34718 24.9871 7.96323 22.5627 7.96323 22.5627" stroke="#C9D3DC" style="stroke:#C9D3DC;stroke:color(display-p3 0.7870 0.8263 0.8625);stroke-opacity:1;" stroke-width="2" stroke-linecap="round" stroke-linejoin="round"/>
<path d="M25.7297 0.769965L25.7294 0.769714C25.6204 0.660507 25.4845 0.580462 25.3329 0.536519C25.183 0.493072 25.0245 0.488309 24.8723 0.522674C24.8723 0.522675 24.8723 0.522677 24.8723 0.522678L22.8769 0.975286L22.8767 0.975318C20.6094 1.48891 18.5338 2.63392 16.89 4.27787L16.8899 4.27797L10.2785 10.8865L10.1246 11.0403L5.76829 15.8803L6.3299 16.2172L6.3826 16.2488L6.42607 16.2923L10.0848 19.9482L10.085 19.9484C10.1959 20.0592 10.2928 20.1833 10.3735 20.3177L10.3738 20.3182L13.211 25.0515C13.2832 25.1718 13.3818 25.2741 13.4994 25.3505C13.6171 25.427 13.7506 25.4757 13.8898 25.4929C14.029 25.51 14.1704 25.4953 14.303 25.4497C14.4356 25.4042 14.5561 25.329 14.6553 25.23L25.7297 0.769965ZM25.7297 0.769965C25.84 0.880303 25.9205 1.01678 25.9638 1.16666C26.0071 1.31655 26.0117 1.47495 25.9772 1.6271L25.9772 1.62736L25.5259 3.62304C25.5259 3.62312 25.5259 3.62321 25.5259 3.6233C25.012 5.89005 23.8671 7.96506 22.2234 9.6084L22.2234 9.60844L15.612 16.2198L15.2941 16.5377L15.5765 16.8875C16.9718 18.6156 17.3712 20.1831 17.0438 21.6339C16.6944 23.1812 15.5391 24.3477 14.741 25.1443L14.7407 25.1446L14.6555 25.2298L25.7297 0.769965ZM1.35222 11.7621L1.35224 11.7621L1.35585 11.7585C2.15177 10.9597 3.31843 9.80553 4.86584 9.45461C5.83842 9.23563 6.85592 9.34326 7.93646 9.84996L3.65188 14.6101L1.44831 13.2874L1.19167 13.715L1.44831 13.2874C1.32802 13.2152 1.22576 13.1166 1.14928 12.999C1.07281 12.8813 1.02414 12.7478 1.00695 12.6086C0.989771 12.4694 1.00453 12.328 1.05012 12.1954C1.09549 12.0633 1.1702 11.9433 1.26862 11.8443L1.35222 11.7621Z" fill="#C9D3DC" stroke="#C9D3DC" style="fill:#C9D3DC;fill:color(display-p3 0.7870 0.8263 0.8625);fill-opacity:1;stroke:#C9D3DC;stroke:color(display-p3 0.7870 0.8263 0.8625);stroke-opacity:1;"/>
</svg>
